<?xml version="1.0" encoding="UTF-8" standalone="no"?>
<!-- Created with Inkscape (http://www.inkscape.org/) -->

<svg
   xmlns:dc="http://purl.org/dc/elements/1.1/"
   xmlns:cc="http://creativecommons.org/ns#"
   xmlns:rdf="http://www.w3.org/1999/02/22-rdf-syntax-ns#"
   xmlns:svg="http://www.w3.org/2000/svg"
   xmlns="http://www.w3.org/2000/svg"
   xmlns:sodipodi="http://sodipodi.sourceforge.net/DTD/sodipodi-0.dtd"
   xmlns:inkscape="http://www.inkscape.org/namespaces/inkscape"
   version="1.1"
   id="svg1786"
   xml:space="preserve"
   width="800"
   height="800"
   viewBox="0 0 800 800"
   sodipodi:docname="communist-symbol-publicdomainvectors.org.svg"
   inkscape:version="0.92.4 (5da689c313, 2019-01-14)"><metadata
     id="metadata1792"><rdf:RDF><cc:Work
         rdf:about=""><dc:format>image/svg+xml</dc:format><dc:type
           rdf:resource="http://purl.org/dc/dcmitype/StillImage" /><dc:title></dc:title></cc:Work></rdf:RDF></metadata><defs
     id="defs1790"><clipPath
       clipPathUnits="userSpaceOnUse"
       id="clipPath1802"><path
         d="M 0,600 H 600 V 0 H 0 Z"
         id="path1800"
         inkscape:connector-curvature="0" /></clipPath></defs><sodipodi:namedview
     pagecolor="#ffffff"
     bordercolor="#666666"
     borderopacity="1"
     objecttolerance="10"
     gridtolerance="10"
     guidetolerance="10"
     inkscape:pageopacity="0"
     inkscape:pageshadow="2"
     inkscape:window-width="1920"
     inkscape:window-height="1018"
     id="namedview1788"
     showgrid="false"
     inkscape:zoom="1.06125"
     inkscape:cx="400"
     inkscape:cy="400"
     inkscape:window-x="-8"
     inkscape:window-y="-8"
     inkscape:window-maximized="1"
     inkscape:current-layer="g1794" /><g
     id="g1794"
     inkscape:groupmode="layer"
     inkscape:label="communist-symbol-publicdomainvectors.org"
     transform="matrix(1.3333333,0,0,-1.3333333,0,800)"><g
       id="g1796"><g
         id="g1798"
         clip-path="url(#clipPath1802)"><path
           d="m 334.001,381.438 -30.453,93.724 -0.994,-84.201 c 11.121,-0.931 21.797,-4.187 31.447,-9.523 m 43.239,-66.244 c 0.275,-7.461 -0.567,-14.702 -2.348,-21.578 l 86.022,62.502 -85.428,-27.348 c 0.974,-4.39 1.584,-8.921 1.754,-13.576 m -20.291,-94.405 -2.516,2.572 c -7.119,7.273 -13.666,13.951 -19.703,20.092 -7.922,-4.497 -16.705,-7.664 -26.059,-9.196 l 88.883,-64.578 -32.984,46.518 c -2.889,0.874 -5.502,2.431 -7.621,4.592 m -88.994,131.419 -6.66,9.341 h -12.433 c -0.085,-0.067 -0.174,-0.129 -0.258,-0.196 l -0.383,-0.311 -0.447,-0.209 c -0.837,-0.391 -1.694,-0.589 -2.546,-0.589 -1.322,0 -2.517,0.484 -3.441,1.305 H 137.791 l 103.748,-35.767 z m -31.576,-95.632 c -1.863,1.874 -3.582,3.789 -5.099,5.731 l -1.504,1.924 -7.202,-22.168 c 2.975,3.191 5.795,6.136 8.883,9.361 1.558,1.626 3.185,3.326 4.922,5.152 m 64.822,7.157 c 3.57,0.83 6.996,1.948 10.245,3.341 -3.657,3.696 -7.027,7.093 -10.133,10.217 z m 0.945,92.656 3.528,-0.333 1.238,-0.118 2.974,0.109 3.165,-6.179 -11.107,-10.492 -0.303,-25.696 c 1.137,-0.977 2.324,-1.995 3.56,-3.058 l 25.896,39.066 c -7.408,8.469 -17.423,14.892 -28.817,18.126 z m -57.101,-75.738 3.007,2.919 2.776,-3.137 c 0.912,-1.032 1.868,-2.013 2.844,-2.971 l 0.572,0.555 c 2.342,-2.65 4.92,-5.077 7.652,-7.274 2.639,-1.78 5.387,-3.316 8.188,-4.576 l 18.932,23.429 c -3.574,3.556 -6.616,6.564 -9.204,9.104 l -42.945,-12.643 -6.336,-19.5 1.115,1.082 z m 71.94,19.822 22.595,-6.764 c 3.345,7.102 5.062,15.034 4.757,23.407 -0.023,0.553 -0.066,1.099 -0.107,1.648 L 308.89,307.45 c 2.56,-2.204 5.274,-4.542 8.095,-6.977 m -89.487,-87.015 -23.783,-29.437 11.922,36.691 c 2.48,-4.37 7.08,-7.231 11.861,-7.254"
           style="fill:#ff0000;fill-opacity:1;fill-rule:nonzero;stroke:none"
           id="path1804"
           inkscape:connector-curvature="0" /><path
           d="m 359.807,223.589 c 2.863,-2.92 6.669,-4.211 10.369,-4.211 10.104,0 19.428,9.623 6.658,22.01 -4.828,4.684 -12.147,11.372 -20.625,18.952 -0.841,-0.871 -1.703,-1.722 -2.586,-2.552 l 28.043,-25.409 c 0.409,-0.371 0.44,-1.003 0.069,-1.413 -0.198,-0.218 -0.469,-0.328 -0.741,-0.328 -0.24,0 -0.48,0.086 -0.671,0.258 l -28.168,25.523 c -0.717,-0.639 -1.455,-1.255 -2.196,-1.867 30.41,-27.936 30.483,-28.103 30.52,-28.196 0.103,-0.255 -0.022,-0.547 -0.277,-0.65 -0.061,-0.024 -0.124,-0.036 -0.186,-0.036 -0.15,0 -0.293,0.066 -0.389,0.184 -0.599,0.621 -13.841,12.802 -30.445,28.051 -0.141,-0.112 -0.285,-0.217 -0.426,-0.327 -0.859,-0.777 -1.74,-1.532 -2.633,-2.271 16.125,-15.422 28.875,-27.615 29.182,-27.905 0.402,-0.378 0.423,-1.01 0.043,-1.413 -0.197,-0.209 -0.463,-0.314 -0.728,-0.314 -0.247,0 -0.493,0.09 -0.685,0.271 -0.317,0.298 -13.164,12.584 -29.384,28.096 -0.931,-0.733 -1.879,-1.447 -2.846,-2.138 14.125,-14.019 25.245,-25.087 26.391,-26.318 0.188,-0.202 0.176,-0.519 -0.025,-0.707 -0.098,-0.09 -0.218,-0.134 -0.342,-0.134 -0.133,0 -0.268,0.054 -0.365,0.159 -1.145,1.23 -12.319,12.351 -26.493,26.42 -0.861,-0.598 -1.73,-1.183 -2.615,-1.749 10.763,-10.956 19.129,-19.516 21.551,-21.986"
           style="fill:#a67c52;fill-opacity:1;fill-rule:nonzero;stroke:none"
           id="path1806"
           inkscape:connector-curvature="0" /><path
           d="m 284.809,322.529 -6.608,-6.743 c 0.278,0.026 0.565,-0.054 0.783,-0.262 0.448,-0.428 21.532,-20.596 43.858,-41.951 0.908,0.667 1.793,1.359 2.653,2.073 -22.807,20.928 -44.266,40.598 -44.725,41.017 -0.204,0.187 -0.217,0.503 -0.03,0.707 0.188,0.203 0.502,0.217 0.706,0.03 18.027,-16.523 32.757,-30.031 44.816,-41.094 0.675,0.581 1.332,1.176 1.975,1.787 l -45.264,41.014 c -0.41,0.372 -0.442,1.004 -0.071,1.414 0.371,0.409 1.003,0.44 1.412,0.069 l 45.35,-41.092 c 0.748,0.767 1.471,1.555 2.17,2.361 -19.818,17.327 -39.533,34.253 -47.025,40.67"
           style="fill:#a67c52;fill-opacity:1;fill-rule:nonzero;stroke:none"
           id="path1808"
           inkscape:connector-curvature="0" /><path
           d="m 277.602,314.079 c -0.226,0.215 -0.314,0.509 -0.293,0.797 l -4.131,-4.217 c 8.368,-7.848 25.324,-24.812 42.094,-41.763 0.84,0.434 1.666,0.886 2.478,1.358 -21.355,21.165 -41.592,41.192 -42.015,41.61 -0.196,0.195 -0.198,0.511 -0.005,0.707 0.196,0.197 0.513,0.198 0.708,0.004 0.424,-0.42 20.783,-20.566 42.213,-41.805 0.859,0.521 1.7,1.067 2.527,1.628 -21.498,20.563 -41.785,39.968 -43.576,41.681"
           style="fill:#a67c52;fill-opacity:1;fill-rule:nonzero;stroke:none"
           id="path1810"
           inkscape:connector-curvature="0" /><path
           d="m 239.736,252.246 c 0.209,-0.179 0.235,-0.495 0.056,-0.705 -0.187,-0.217 -18.571,-21.738 -20.452,-24.151 -0.1,-0.126 -0.246,-0.193 -0.395,-0.193 -0.107,0 -0.216,0.034 -0.307,0.106 -0.218,0.17 -0.256,0.484 -0.087,0.702 1.894,2.43 19.722,23.299 20.48,24.186 0.18,0.209 0.494,0.236 0.705,0.055 m 2.401,-1.682 c 0.218,-0.169 0.256,-0.484 0.086,-0.702 -0.821,-1.051 -20.11,-25.761 -21.252,-27.052 -0.098,-0.114 -0.237,-0.17 -0.374,-0.17 -0.118,0 -0.236,0.041 -0.331,0.127 -0.207,0.181 -0.227,0.497 -0.044,0.704 1.123,1.268 21.012,26.75 21.214,27.007 0.169,0.216 0.483,0.256 0.701,0.086 m 2.379,-2.007 c 0.224,-0.161 0.275,-0.474 0.114,-0.698 -0.81,-1.124 -19.835,-27.523 -20.816,-28.698 -0.099,-0.118 -0.242,-0.18 -0.385,-0.18 -0.113,0 -0.226,0.039 -0.32,0.117 -0.213,0.176 -0.24,0.492 -0.063,0.704 0.959,1.148 20.573,28.367 20.772,28.641 0.161,0.225 0.474,0.278 0.698,0.114 m 1.726,-1.305 c 0.237,-0.142 0.314,-0.448 0.173,-0.686 l -16.64,-27.816 c -0.094,-0.156 -0.26,-0.243 -0.43,-0.243 -0.088,0 -0.176,0.022 -0.256,0.071 -0.237,0.142 -0.314,0.448 -0.173,0.686 l 16.64,27.816 c 0.141,0.236 0.449,0.316 0.686,0.172 m -18.685,-29.797 c 3.29,0 6.795,1.958 9.444,7.01 5.215,9.951 9.024,17.244 11.597,22.18 -0.112,0.072 -0.226,0.138 -0.336,0.21 l -0.131,0.086 -0.124,0.096 -8.429,6.507 -0.118,0.092 -0.112,0.1 c -0.028,0.025 -0.052,0.049 -0.078,0.074 -7.052,-7.408 -12.186,-12.634 -18.927,-20.087 -6.187,-6.841 -0.005,-16.268 7.214,-16.268"
           style="fill:#a67c52;fill-opacity:1;fill-rule:nonzero;stroke:none"
           id="path1812"
           inkscape:connector-curvature="0" /><path
           d="m 380.322,230.896 c 0.192,-0.172 0.433,-0.258 0.673,-0.258 0.271,0 0.543,0.11 0.739,0.328 0.371,0.41 0.341,1.042 -0.067,1.413 l -28.043,25.409 -0.295,0.267 c -0.457,-0.486 -0.929,-0.959 -1.397,-1.434 l 0.222,-0.202 z"
           style="fill:#c69c6d;fill-opacity:1;fill-rule:nonzero;stroke:none"
           id="path1814"
           inkscape:connector-curvature="0" /><path
           d="m 373.935,221.946 c 0.192,-0.181 0.438,-0.27 0.685,-0.27 0.265,0 0.531,0.104 0.728,0.313 0.38,0.403 0.359,1.035 -0.043,1.414 -0.307,0.289 -13.057,12.482 -29.182,27.904 -0.517,-0.429 -1.043,-0.85 -1.572,-1.265 16.22,-15.512 29.067,-27.798 29.384,-28.096"
           style="fill:#c69c6d;fill-opacity:1;fill-rule:nonzero;stroke:none"
           id="path1816"
           inkscape:connector-curvature="0" /><path
           d="m 284.314,320.59 c -0.409,0.371 -1.041,0.34 -1.413,-0.069 -0.37,-0.411 -0.338,-1.042 0.07,-1.414 l 45.265,-41.014 c 0.486,0.461 0.961,0.928 1.428,1.405 z"
           style="fill:#c69c6d;fill-opacity:1;fill-rule:nonzero;stroke:none"
           id="path1818"
           inkscape:connector-curvature="0" /><path
           d="m 278.984,315.524 c -0.218,0.208 -0.504,0.288 -0.783,0.262 -0.231,-0.021 -0.458,-0.112 -0.631,-0.293 -0.168,-0.175 -0.244,-0.394 -0.261,-0.617 -0.021,-0.288 0.067,-0.581 0.293,-0.797 1.791,-1.713 22.077,-21.118 43.576,-41.681 0.563,0.383 1.118,0.775 1.664,1.175 -22.326,21.355 -43.41,41.523 -43.858,41.951"
           style="fill:#c69c6d;fill-opacity:1;fill-rule:nonzero;stroke:none"
           id="path1820"
           inkscape:connector-curvature="0" /><path
           d="m 218.551,228.005 c -0.169,-0.218 -0.131,-0.532 0.087,-0.702 0.091,-0.071 0.2,-0.106 0.307,-0.106 0.149,0 0.295,0.067 0.395,0.193 1.881,2.413 20.265,23.934 20.452,24.151 0.179,0.21 0.153,0.526 -0.056,0.705 -0.211,0.181 -0.525,0.155 -0.705,-0.054 -0.758,-0.888 -18.586,-21.757 -20.48,-24.187"
           style="fill:#c69c6d;fill-opacity:1;fill-rule:nonzero;stroke:none"
           id="path1822"
           inkscape:connector-curvature="0" /><path
           d="m 223.046,219.802 c -0.177,-0.212 -0.15,-0.528 0.063,-0.704 0.094,-0.078 0.207,-0.117 0.32,-0.117 0.143,0 0.285,0.062 0.385,0.18 0.981,1.175 20.006,27.574 20.815,28.698 0.162,0.224 0.111,0.537 -0.113,0.698 -0.224,0.164 -0.537,0.111 -0.698,-0.114 -0.198,-0.274 -19.813,-27.493 -20.772,-28.641"
           style="fill:#c69c6d;fill-opacity:1;fill-rule:nonzero;stroke:none"
           id="path1824"
           inkscape:connector-curvature="0" /><path
           d="m 293.104,387.206 c 0.935,0.034 1.861,0.051 2.789,0.051 40.171,0 73.456,-31.819 74.933,-72.297 1.515,-41.412 -30.83,-76.208 -72.242,-77.722 -1.039,-0.038 -2.074,-0.056 -3.11,-0.056 -16.201,0 -32.15,4.604 -45.023,13.021 l -8.429,6.507 c -2.757,2.481 -5.319,5.155 -7.589,8.059 l 13.399,13.013 c 10.565,-11.942 25.67,-19.69 39.91,-19.69 0.471,0 0.945,0.008 1.413,0.025 34.745,1.27 60.346,27.197 59.177,59.145 -1.139,31.202 -29.188,56.893 -62.871,56.893 -0.803,0 -1.613,-0.014 -2.424,-0.044 -17.983,-0.657 -28.998,-3.193 -36.955,-9.653 -0.319,-0.149 -0.604,-0.215 -0.854,-0.215 -1.4,0 -1.687,2.047 -0.533,2.879 12.737,11.877 29.643,19.398 48.409,20.084 m -38.059,-89.338 -20.916,14.844 42.091,42.105 29.078,-2.744 1.026,-1.869 z M 382.527,280.625 432.96,125.414 300.93,221.34 168.899,125.414 219.33,280.625 87.3,376.55 h 162.638 c 0.243,0.173 0.484,0.344 0.728,0.514 L 300.93,531.761 351.359,376.55 H 514.56 Z m 67.711,39.305 22.931,16.659 66.012,47.961 h -76.703 -28.605 -25.129 -16.621 -16.049 -11.459 -7.442 l -1.437,4.423 -3.51,10.804 -4.941,15.204 -5.153,15.865 -7.863,24.197 -9.04,27.818 -24.299,74.788 -24.844,-76.462 -8.803,-27.089 -7.713,-23.738 -5.08,-15.636 -4.902,-15.085 -3.493,-10.753 -1.408,-4.336 H 237.035 225.367 208.943 191.862 165.888 136.053 62.68 l 69.121,-50.22 22.232,-16.151 19.527,-14.188 12.938,-9.4 12.461,-9.054 8.854,-6.433 2.113,-1.535 -2.874,-8.844 -3.55,-10.925 -5.012,-15.427 -5.223,-16.075 -7.948,-24.461 -9.106,-28.027 -22.529,-69.34 68.07,49.457 22.173,16.108 19.399,14.095 12.782,9.287 12.328,8.956 8.804,6.396 3.69,2.682 5.83,-4.236 9.014,-6.549 12.669,-9.205 13.193,-9.585 20.112,-14.612 23.097,-16.781 63.332,-46.013 -24.234,74.576 -8.682,26.729 -7.631,23.484 -5.039,15.508 -4.851,14.925 -3.449,10.618 -2.358,7.259 3.307,2.403 8.91,6.473 12.579,9.14 13.519,9.822 z"
           style="fill:#fbcc34;fill-opacity:1;fill-rule:nonzero;stroke:none"
           id="path1826"
           inkscape:connector-curvature="0" /><path
           d="m 208.943,384.55 -66.026,56.716 c -3.716,-4.325 -7.298,-8.858 -10.644,-13.47 l 59.588,-43.246 z"
           style="fill:#42210b;fill-opacity:1;fill-rule:nonzero;stroke:none"
           id="path1828"
           inkscape:connector-curvature="0" /><path
           d="m 249.589,399.639 -48.829,88.642 c -4.998,-2.754 -9.946,-5.751 -14.705,-8.91 l 60.04,-90.485 z"
           style="fill:#42210b;fill-opacity:1;fill-rule:nonzero;stroke:none"
           id="path1830"
           inkscape:connector-curvature="0" /><path
           d="m 237.034,384.55 -67.317,82.802 c -4.422,-3.595 -8.75,-7.418 -12.865,-11.365 l 68.515,-71.437 z"
           style="fill:#42210b;fill-opacity:1;fill-rule:nonzero;stroke:none"
           id="path1832"
           inkscape:connector-curvature="0" /><path
           d="m 276.086,481.188 -4.428,30.831 c -5.66,-0.812 -11.352,-1.872 -16.921,-3.146 l 12.546,-54.775 z"
           style="fill:#42210b;fill-opacity:1;fill-rule:nonzero;stroke:none"
           id="path1834"
           inkscape:connector-curvature="0" /><path
           d="m 95.495,340.55 c -0.962,-5.62 -1.704,-11.356 -2.203,-17.049 l 60.741,-5.322 -22.232,16.151 z"
           style="fill:#42210b;fill-opacity:1;fill-rule:nonzero;stroke:none"
           id="path1836"
           inkscape:connector-curvature="0" /><path
           d="m 165.888,384.55 -44.732,26.249 c -2.894,-4.933 -5.617,-10.045 -8.094,-15.196 l 22.991,-11.053 z"
           style="fill:#42210b;fill-opacity:1;fill-rule:nonzero;stroke:none"
           id="path1838"
           inkscape:connector-curvature="0" /><path
           d="m 259.57,430.36 -24.44,72.997 c -5.42,-1.815 -10.834,-3.88 -16.093,-6.142 l 35.453,-82.492 z"
           style="fill:#42210b;fill-opacity:1;fill-rule:nonzero;stroke:none"
           id="path1840"
           inkscape:connector-curvature="0" /><path
           d="m 408.744,384.55 60.716,45.08 c -3.396,4.573 -7.022,9.063 -10.777,13.342 L 392.124,384.55 Z"
           style="fill:#42210b;fill-opacity:1;fill-rule:nonzero;stroke:none"
           id="path1842"
           inkscape:connector-curvature="0" /><path
           d="m 462.477,384.55 26.533,13.12 c -2.529,5.114 -5.303,10.19 -8.248,15.084 L 433.873,384.55 Z"
           style="fill:#42210b;fill-opacity:1;fill-rule:nonzero;stroke:none"
           id="path1844"
           inkscape:connector-curvature="0" /><path
           d="m 346.074,509.378 c -5.579,1.212 -11.28,2.207 -16.944,2.957 l -3.901,-29.474 9.039,-27.818 z"
           style="fill:#42210b;fill-opacity:1;fill-rule:nonzero;stroke:none"
           id="path1846"
           inkscape:connector-curvature="0" /><path
           d="m 450.238,319.93 59.334,5.867 c -0.56,5.68 -1.362,11.4 -2.386,17.001 l -34.017,-6.209 z"
           style="fill:#42210b;fill-opacity:1;fill-rule:nonzero;stroke:none"
           id="path1848"
           inkscape:connector-curvature="0" /><path
           d="m 355.736,388.973 59.39,91.644 c -4.795,3.108 -9.78,6.052 -14.815,8.755 l -48.086,-89.594 z"
           style="fill:#42210b;fill-opacity:1;fill-rule:nonzero;stroke:none"
           id="path1850"
           inkscape:connector-curvature="0" /><path
           d="m 347.285,414.981 34.651,83.127 c -5.291,2.206 -10.737,4.215 -16.187,5.974 l -23.617,-73.237 z"
           style="fill:#42210b;fill-opacity:1;fill-rule:nonzero;stroke:none"
           id="path1852"
           inkscape:connector-curvature="0" /><path
           d="m 376.074,384.55 68.507,73.001 c -4.152,3.895 -8.518,7.669 -12.976,11.215 l -66.99,-84.216 z"
           style="fill:#42210b;fill-opacity:1;fill-rule:nonzero;stroke:none"
           id="path1854"
           inkscape:connector-curvature="0" /><path
           d="m 361.748,167.264 23.513,-53.758 c 5.235,2.29 10.44,4.827 15.468,7.541 l -15.884,29.436 z"
           style="fill:#42210b;fill-opacity:1;fill-rule:nonzero;stroke:none"
           id="path1856"
           inkscape:connector-curvature="0" /><path
           d="m 328.443,191.461 21.181,-89.841 c 5.572,1.314 11.156,2.876 16.593,4.645 l -24.582,75.611 z"
           style="fill:#42210b;fill-opacity:1;fill-rule:nonzero;stroke:none"
           id="path1858"
           inkscape:connector-curvature="0" /><path
           d="m 423.943,179.046 23.239,-23.919 c 4.086,3.971 8.054,8.154 11.797,12.435 l -43.719,38.213 z"
           style="fill:#42210b;fill-opacity:1;fill-rule:nonzero;stroke:none"
           id="path1860"
           inkscape:connector-curvature="0" /><path
           d="m 306.76,207.215 5.764,-110.883 c 5.705,0.296 11.458,0.832 17.104,1.594 l -13.854,102.74 z"
           style="fill:#42210b;fill-opacity:1;fill-rule:nonzero;stroke:none"
           id="path1862"
           inkscape:connector-curvature="0" /><path
           d="m 407.63,229.259 63.948,-45.792 c 3.328,4.647 6.5,9.484 9.427,14.377 l -78.414,46.923 z"
           style="fill:#42210b;fill-opacity:1;fill-rule:nonzero;stroke:none"
           id="path1864"
           inkscape:connector-curvature="0" /><path
           d="m 395.24,279.972 108.283,-28.906 c 1.476,5.529 2.738,11.184 3.75,16.811 L 404.15,286.445 Z"
           style="fill:#42210b;fill-opacity:1;fill-rule:nonzero;stroke:none"
           id="path1866"
           inkscape:connector-curvature="0" /><path
           d="m 397.74,259.692 92.843,-43.917 c 2.448,5.176 4.711,10.52 6.721,15.879 L 394.292,270.31 Z"
           style="fill:#42210b;fill-opacity:1;fill-rule:nonzero;stroke:none"
           id="path1868"
           inkscape:connector-curvature="0" /><path
           d="M 207.052,268.725 106.419,229.962 c 2.056,-5.338 4.362,-10.656 6.854,-15.808 l 90.23,43.646 z"
           style="fill:#42210b;fill-opacity:1;fill-rule:nonzero;stroke:none"
           id="path1870"
           inkscape:connector-curvature="0" /><path
           d="m 198.49,242.373 -75.484,-46.069 c 2.971,-4.869 6.18,-9.673 9.539,-14.279 l 60.721,44.273 z"
           style="fill:#42210b;fill-opacity:1;fill-rule:nonzero;stroke:none"
           id="path1872"
           inkscape:connector-curvature="0" /><path
           d="M 185.319,201.837 145.273,166.23 c 3.788,-4.258 7.796,-8.413 11.917,-12.346 l 19.023,19.927 z"
           style="fill:#42210b;fill-opacity:1;fill-rule:nonzero;stroke:none"
           id="path1874"
           inkscape:connector-curvature="0" /><path
           d="M 198.959,285.537 96.135,266.092 c 1.064,-5.624 2.377,-11.273 3.902,-16.789 l 107.776,29.801 z"
           style="fill:#42210b;fill-opacity:1;fill-rule:nonzero;stroke:none"
           id="path1876"
           inkscape:connector-curvature="0" /><path
           d="m 221.755,153.927 -17.827,-33.723 c 5.058,-2.675 10.29,-5.169 15.549,-7.415 l 24.449,57.246 z"
           style="fill:#42210b;fill-opacity:1;fill-rule:nonzero;stroke:none"
           id="path1878"
           inkscape:connector-curvature="0" /><path
           d="m 275.24,97.692 c 5.647,-0.712 11.401,-1.198 17.102,-1.446 l 4.897,112.524 -8.803,-6.397 z"
           style="fill:#42210b;fill-opacity:1;fill-rule:nonzero;stroke:none"
           id="path1880"
           inkscape:connector-curvature="0" /><path
           d="m 263.325,184.13 -24.744,-78.416 c 5.46,-1.724 11.058,-3.237 16.64,-4.502 l 20.887,92.205 z"
           style="fill:#42210b;fill-opacity:1;fill-rule:nonzero;stroke:none"
           id="path1882"
           inkscape:connector-curvature="0" /><path
           d="m 173.559,303.991 -81.062,-0.694 c 0.048,-5.693 0.331,-11.443 0.839,-17.089 l 93.161,8.383 z"
           style="fill:#42210b;fill-opacity:1;fill-rule:nonzero;stroke:none"
           id="path1884"
           inkscape:connector-curvature="0" /><path
           d="m 435.59,305.407 h -5.342 l -13.519,-9.822 93.168,-7.591 c 0.461,5.652 0.693,11.406 0.693,17.103 v 0.276 z"
           style="fill:#42210b;fill-opacity:1;fill-rule:nonzero;stroke:none"
           id="path1886"
           inkscape:connector-curvature="0" /><path
           d="m 308.671,234.257 c 9.355,1.532 18.136,4.699 26.059,9.196 6.036,-6.141 12.584,-12.819 19.702,-20.093 l 2.518,-2.571 c 2.119,-2.161 4.73,-3.718 7.621,-4.592 l 32.982,-46.518 z m -93.035,-13.545 c 2.481,-4.37 7.08,-7.231 11.862,-7.255 l -23.783,-29.436 z m 26.151,140.838 c 0.924,-0.822 2.119,-1.307 3.44,-1.307 0.852,0 1.711,0.2 2.548,0.591 l 0.446,0.208 0.383,0.311 c 0.084,0.068 0.173,0.13 0.257,0.197 h 12.434 l 6.66,-9.342 L 241.539,325.782 137.79,361.55 Z M 220.343,233.723 c 6.741,7.453 11.875,12.679 18.927,20.087 0.026,-0.025 0.05,-0.049 0.078,-0.075 l 0.112,-0.099 0.119,-0.092 8.427,-6.507 0.124,-0.096 0.132,-0.086 c 0.11,-0.072 0.224,-0.138 0.336,-0.21 -2.573,-4.936 -6.382,-12.229 -11.597,-22.18 -2.649,-5.052 -6.154,-7.01 -9.444,-7.01 -7.219,0 -13.401,9.427 -7.214,16.268 m 9.432,30.508 1.506,-1.924 c 1.517,-1.942 3.235,-3.857 5.099,-5.731 -1.739,-1.827 -3.364,-3.526 -4.923,-5.152 -3.088,-3.225 -5.908,-6.17 -8.885,-9.361 z m 46.445,90.587 29.078,-2.745 1.026,-1.869 -51.279,-52.336 -20.916,14.844 z m 28.982,-44.196 c -1.238,1.063 -2.423,2.081 -3.561,3.058 l 0.302,25.697 11.108,10.49 -3.165,6.181 -2.974,-0.109 -1.238,0.117 -3.528,0.333 0.134,11.426 c 11.393,-3.236 21.409,-9.659 28.816,-18.126 z m 11.783,-10.149 c -2.821,2.435 -5.534,4.773 -8.095,6.977 l 35.34,11.314 c 0.04,-0.549 0.084,-1.095 0.107,-1.648 0.304,-8.373 -1.413,-16.305 -4.756,-23.408 z M 301.313,277.29 c 3.106,-3.123 6.476,-6.52 10.133,-10.216 -3.248,-1.393 -6.675,-2.511 -10.245,-3.341 z m -47.069,0.727 -0.571,-0.555 c -0.978,0.958 -1.933,1.939 -2.845,2.971 l -2.777,3.137 -3.005,-2.919 -13.4,-13.012 -1.115,-1.082 6.337,19.5 42.945,12.643 c 2.587,-2.54 5.628,-5.548 9.203,-9.104 l -18.931,-23.43 c -2.804,1.261 -5.549,2.797 -8.189,4.577 -2.732,2.197 -5.309,4.624 -7.652,7.274 m 26.527,38.646 c 0.458,-0.419 21.916,-20.089 44.724,-41.017 -0.86,-0.714 -1.744,-1.406 -2.653,-2.073 -0.546,-0.4 -1.101,-0.792 -1.664,-1.175 -0.828,-0.561 -1.668,-1.107 -2.527,-1.628 -21.431,21.239 -41.79,41.385 -42.212,41.805 -0.196,0.194 -0.513,0.193 -0.707,-0.004 -0.195,-0.196 -0.193,-0.512 0.002,-0.707 0.424,-0.418 20.661,-20.445 42.016,-41.61 -0.812,-0.472 -1.638,-0.924 -2.478,-1.358 -16.77,16.951 -33.726,33.915 -42.094,41.763 l 4.131,4.217 c 0.017,0.223 0.093,0.442 0.261,0.617 0.173,0.181 0.4,0.272 0.631,0.293 l 6.608,6.743 c 7.491,-6.418 27.208,-23.343 47.026,-40.67 -0.7,-0.806 -1.422,-1.594 -2.17,-2.361 -0.467,-0.477 -0.944,-0.944 -1.428,-1.405 -0.643,-0.611 -1.301,-1.206 -1.975,-1.787 -12.059,11.063 -26.789,24.571 -44.817,41.094 -0.203,0.187 -0.518,0.173 -0.705,-0.03 -0.187,-0.204 -0.174,-0.52 0.031,-0.707 m 12.334,70.543 c 0.935,0.034 1.859,0.051 2.788,0.051 40.171,0 73.455,-31.818 74.934,-72.297 1.513,-41.412 -30.83,-76.208 -72.244,-77.722 -1.037,-0.038 -2.073,-0.056 -3.11,-0.056 -16.2,0 -32.151,4.604 -45.022,13.021 l -8.428,6.507 c -2.757,2.481 -5.321,5.155 -7.589,8.06 l 13.398,13.012 c 10.566,-11.942 25.67,-19.69 39.908,-19.69 0.473,0 0.946,0.008 1.414,0.025 34.747,1.27 60.347,27.197 59.179,59.145 -1.139,31.202 -29.19,56.893 -62.871,56.893 -0.804,0 -1.615,-0.014 -2.425,-0.044 -17.984,-0.657 -28.999,-3.193 -36.955,-9.653 -0.32,-0.149 -0.605,-0.215 -0.855,-0.215 -1.399,0 -1.685,2.047 -0.532,2.879 12.737,11.877 29.643,19.399 48.41,20.084 m 10.443,87.955 30.453,-93.723 c -9.651,5.337 -20.327,8.592 -31.447,9.524 z m 64.548,-253.575 c -1.146,1.231 -12.265,12.299 -26.39,26.318 0.966,0.691 1.914,1.405 2.845,2.138 0.53,0.415 1.054,0.836 1.573,1.265 0.892,0.739 1.772,1.494 2.632,2.271 0.14,0.11 0.286,0.215 0.426,0.327 16.604,-15.249 29.846,-27.43 30.446,-28.051 0.095,-0.118 0.238,-0.184 0.388,-0.184 0.063,0 0.125,0.012 0.186,0.036 0.256,0.103 0.381,0.395 0.277,0.65 -0.037,0.093 -0.109,0.26 -30.519,28.196 0.74,0.612 1.478,1.228 2.195,1.867 l -0.223,0.202 c 0.469,0.475 0.94,0.947 1.397,1.434 l 0.295,-0.267 c 0.882,0.83 1.744,1.681 2.586,2.552 8.476,-7.58 15.796,-14.268 20.625,-18.952 12.769,-12.387 3.445,-22.01 -6.659,-22.01 -3.701,0 -7.505,1.291 -10.369,4.211 -2.422,2.47 -10.789,11.03 -21.551,21.986 0.885,0.566 1.754,1.151 2.616,1.749 14.174,-14.069 25.347,-25.19 26.492,-26.42 0.098,-0.105 0.232,-0.159 0.365,-0.159 0.123,0 0.244,0.044 0.342,0.134 0.2,0.188 0.213,0.505 0.025,0.707 m 6.795,72.03 c 1.781,6.876 2.623,14.117 2.35,21.579 -0.17,4.654 -0.781,9.185 -1.754,13.575 l 85.428,27.347 z M 514.559,376.55 H 351.36 L 300.93,531.761 250.666,377.065 c -0.244,-0.17 -0.486,-0.342 -0.727,-0.515 H 87.301 L 219.331,280.625 168.9,125.414 300.93,221.34 432.96,125.414 382.528,280.625 Z"
           style="fill:#42210b;fill-opacity:1;fill-rule:nonzero;stroke:none"
           id="path1888"
           inkscape:connector-curvature="0" /><path
           d="m 229.088,218.578 c 0.082,-0.049 0.17,-0.071 0.256,-0.071 0.171,0 0.337,0.087 0.43,0.243 l 16.64,27.816 c 0.143,0.238 0.065,0.544 -0.172,0.686 -0.236,0.144 -0.544,0.064 -0.685,-0.172 l -16.641,-27.816 c -0.142,-0.238 -0.064,-0.544 0.172,-0.686"
           style="fill:#42210b;fill-opacity:1;fill-rule:nonzero;stroke:none"
           id="path1890"
           inkscape:connector-curvature="0" /><path
           d="m 242.223,249.862 c 0.17,0.218 0.131,0.533 -0.086,0.702 -0.218,0.17 -0.533,0.13 -0.701,-0.086 -0.202,-0.257 -20.09,-25.739 -21.213,-27.007 -0.184,-0.207 -0.164,-0.523 0.043,-0.705 0.094,-0.085 0.213,-0.126 0.332,-0.126 0.137,0 0.274,0.056 0.373,0.169 1.143,1.291 20.432,26.002 21.252,27.053"
           style="fill:#42210b;fill-opacity:1;fill-rule:nonzero;stroke:none"
           id="path1892"
           inkscape:connector-curvature="0" /></g></g></g></svg>